<?xml version="1.0" encoding="UTF-8" ?>
<!DOCTYPE svg PUBLIC "-//W3C//DTD SVG 1.1//EN" "http://www.w3.org/Graphics/SVG/1.1/DTD/svg11.dtd">
<svg width="170pt" height="170pt" viewBox="0 0 170 170" version="1.1" xmlns="http://www.w3.org/2000/svg">
<path fill="#ffffff" stroke="#ffffff" stroke-width="0.09375" d=" M 0.0 0.0 L 170.0 0.0 L 170.0 170.0 L 0.0 170.0 L 0.0 0.0 Z" />
<path fill="#796958" stroke="#796958" stroke-width="0.09375" d=" M 111.4 17.4 C 114.8 14.0 114.5 7.8 119.3 5.9 C 118.9 9.8 117.1 13.6 114.7 16.6 C 114.0 18.9 113.3 21.3 111.2 22.7 C 111.6 22.9 112.3 23.4 112.7 23.6 C 111.9 25.2 111.1 26.8 110.3 28.3 C 109.7 28.6 108.7 29.1 108.2 29.3 C 108.8 29.4 110.1 29.4 110.7 29.4 C 110.0 32.3 108.2 34.8 105.2 35.6 C 105.8 35.5 106.9 35.3 107.5 35.3 C 107.9 37.0 107.8 38.8 106.3 40.0 C 106.8 41.9 105.9 43.6 105.2 45.2 C 103.8 45.7 102.4 46.1 101.0 46.6 C 102.6 46.5 104.1 46.5 105.7 46.4 C 105.4 47.3 104.7 49.2 104.4 50.1 C 101.9 51.0 99.2 51.7 96.5 51.5 C 96.5 49.8 96.6 48.1 96.6 46.4 L 96.9 46.3 C 97.2 46.1 97.8 45.7 98.1 45.5 C 99.0 44.0 100.2 42.7 101.4 41.4 C 101.5 40.7 101.5 39.2 101.5 38.5 C 104.6 35.9 104.0 31.5 107.2 29.0 C 107.4 24.8 110.4 21.4 111.4 17.4 Z" />
<path fill="#314b49" stroke="#314b49" stroke-width="0.09375" d=" M 94.2 36.1 C 94.2 39.4 95.9 42.2 97.7 44.9 C 97.5 45.3 97.1 45.9 96.9 46.3 C 95.0 45.6 93.2 44.6 91.4 43.6 C 91.3 41.7 91.2 39.7 91.3 37.8 C 91.4 37.4 91.6 36.8 91.7 36.4 C 92.3 36.3 93.6 36.2 94.2 36.1 Z" />
<path fill="#537b79" stroke="#537b79" stroke-width="0.09375" d=" M 88.0 44.6 C 88.6 42.2 88.9 39.1 91.3 37.8 C 91.2 39.7 91.3 41.7 91.4 43.6 C 90.3 44.0 89.2 44.3 88.0 44.6 Z" />
<path fill="#a04d32" stroke="#a04d32" stroke-width="0.09375" d=" M 11.4 39.4 C 11.6 39.6 11.6 39.6 11.4 39.4 Z" />
<path fill="#537b79" stroke="#537b79" stroke-width="0.09375" d=" M 70.6 46.7 C 70.7 43.4 74.3 38.2 77.8 41.2 C 75.0 41.7 74.5 44.7 73.9 47.1 C 73.0 49.3 75.3 50.9 76.4 52.6 C 78.5 54.8 78.3 58.0 78.7 60.8 C 82.4 60.4 85.8 58.2 87.0 54.6 C 85.3 53.3 83.8 52.0 82.3 50.5 C 84.6 50.4 87.0 50.6 89.2 51.5 C 91.8 49.9 94.0 47.9 96.6 46.4 C 96.6 48.1 96.5 49.8 96.5 51.5 C 99.2 51.7 101.9 51.0 104.4 50.1 C 108.8 50.1 112.6 52.6 115.8 55.3 C 119.0 58.0 123.3 58.2 127.1 59.6 C 132.9 61.8 139.2 59.9 145.1 61.2 C 147.2 61.9 149.5 60.8 151.6 61.5 C 154.6 63.5 155.8 67.4 155.8 70.9 C 153.9 73.2 152.3 76.0 149.2 76.8 C 150.1 78.5 150.6 80.3 150.6 82.2 C 147.9 85.7 143.0 86.0 139.0 86.4 C 132.3 85.8 125.7 84.8 119.0 85.4 C 117.3 85.7 116.1 84.3 114.8 83.4 C 107.6 87.3 99.4 90.9 91.0 89.3 C 91.5 89.7 92.4 90.4 92.8 90.8 C 92.5 95.0 89.9 98.7 90.4 103.0 C 90.9 108.2 92.0 114.2 96.8 117.2 C 100.2 119.3 103.3 122.1 106.9 124.0 C 112.3 128.6 116.7 134.1 121.3 139.5 C 125.7 146.5 131.2 153.4 131.8 161.9 C 128.3 159.8 125.5 156.4 121.6 155.1 C 118.2 154.0 115.5 151.5 112.0 150.7 C 108.0 150.0 104.5 147.9 100.5 147.1 C 95.7 145.9 90.8 146.7 86.0 145.8 C 83.0 146.4 80.0 146.3 77.0 146.4 C 72.2 146.5 67.9 149.3 63.1 148.8 C 56.1 149.4 49.2 147.3 43.2 143.9 C 37.7 139.9 34.1 133.8 28.6 129.8 C 29.9 130.4 31.5 130.7 32.9 131.1 C 32.8 128.9 32.5 126.6 31.7 124.6 C 33.2 124.7 34.7 124.6 36.2 124.9 C 37.7 126.6 38.9 128.5 40.2 130.2 C 42.8 127.4 41.3 123.5 40.7 120.2 C 43.5 123.4 44.8 128.0 48.5 130.3 C 48.9 127.3 47.7 124.5 46.9 121.7 C 45.8 118.3 48.5 115.4 49.8 112.4 C 53.0 114.5 56.5 119.4 60.7 116.8 C 56.4 113.2 53.7 108.0 52.6 102.5 C 58.3 103.2 62.2 108.4 67.9 109.0 C 67.4 104.3 62.2 102.4 60.1 98.4 C 58.4 95.1 56.5 90.9 58.7 87.4 C 61.7 88.7 64.4 90.9 67.8 90.7 C 67.0 88.7 66.2 86.7 65.4 84.6 C 65.8 84.7 66.6 84.9 67.0 85.0 C 69.5 89.9 73.1 94.6 72.5 100.4 C 73.9 99.3 75.6 98.1 75.6 96.1 C 76.0 90.3 73.6 84.9 71.6 79.6 C 75.6 82.0 79.5 84.7 81.7 88.9 C 82.0 88.4 82.5 87.5 82.7 87.1 C 81.1 81.7 78.1 76.9 74.6 72.6 C 74.5 72.6 74.4 72.5 74.4 72.4 C 71.8 69.6 69.4 66.1 69.7 62.1 C 70.0 57.5 68.9 52.7 70.6 48.2 C 70.6 47.8 70.6 47.1 70.6 46.7 Z" />
<path fill="#314b49" stroke="#314b49" stroke-width="0.09375" d=" M 73.9 47.1 C 74.5 44.7 75.0 41.7 77.8 41.2 C 78.5 42.6 79.1 44.0 79.6 45.5 C 80.2 47.3 81.0 49.1 82.3 50.5 C 83.8 52.0 85.3 53.3 87.0 54.6 C 85.8 58.2 82.4 60.4 78.7 60.8 C 78.3 58.0 78.5 54.8 76.4 52.6 C 75.3 50.9 73.0 49.3 73.9 47.1 Z" />
<path fill="#a04d32" stroke="#a04d32" stroke-width="0.09375" d=" M 88.0 44.6 C 89.2 44.3 90.3 44.0 91.4 43.6 C 93.2 44.6 95.0 45.6 96.9 46.3 L 96.6 46.4 C 94.0 47.9 91.8 49.9 89.2 51.5 C 87.0 50.6 84.6 50.4 82.3 50.5 C 81.0 49.1 80.2 47.3 79.6 45.5 C 82.3 44.2 85.2 44.9 88.0 44.6 Z" />
<path fill="#796958" stroke="#796958" stroke-width="0.09375" d=" M 69.3 47.9 C 69.6 47.6 70.3 47.0 70.6 46.7 C 70.6 47.1 70.6 47.8 70.6 48.2 C 70.3 48.1 69.6 48.0 69.3 47.9 Z" />
<path fill="#a04d32" stroke="#a04d32" stroke-width="0.09375" d=" M 65.8 48.0 C 66.9 47.6 68.2 47.5 69.3 47.9 C 69.6 48.0 70.3 48.1 70.6 48.2 C 68.9 52.7 70.0 57.5 69.7 62.1 C 69.4 66.1 71.8 69.6 74.4 72.4 C 74.4 72.5 74.5 72.6 74.6 72.6 C 78.1 76.9 81.1 81.7 82.7 87.1 C 82.5 87.5 82.0 88.4 81.7 88.9 C 79.5 84.7 75.6 82.0 71.6 79.6 C 73.6 84.9 76.0 90.3 75.6 96.1 C 75.6 98.1 73.9 99.3 72.5 100.4 C 73.1 94.6 69.5 89.9 67.0 85.0 C 66.6 84.9 65.8 84.7 65.4 84.6 C 66.2 86.7 67.0 88.7 67.8 90.7 C 64.4 90.9 61.7 88.7 58.7 87.4 C 56.5 90.9 58.4 95.1 60.1 98.4 C 62.2 102.4 67.4 104.3 67.9 109.0 C 62.2 108.4 58.3 103.2 52.6 102.5 C 53.7 108.0 56.4 113.2 60.7 116.8 C 56.5 119.4 53.0 114.5 49.8 112.4 C 48.5 115.4 45.8 118.3 46.9 121.7 C 47.7 124.5 48.9 127.3 48.5 130.3 C 44.8 128.0 43.5 123.4 40.7 120.2 C 41.3 123.5 42.8 127.4 40.2 130.2 C 38.9 128.5 37.7 126.6 36.2 124.9 C 34.7 124.6 33.2 124.7 31.7 124.6 C 32.5 126.6 32.8 128.9 32.9 131.1 C 31.5 130.7 29.9 130.4 28.6 129.8 C 28.1 129.5 27.1 128.9 26.6 128.6 L 26.5 128.5 L 26.4 128.4 C 22.2 125.0 19.8 120.2 17.8 115.3 C 15.6 107.8 13.3 99.9 14.5 92.0 C 16.3 83.5 20.7 75.6 26.3 69.0 C 29.3 65.4 33.7 63.4 37.4 60.6 C 41.7 56.5 47.6 54.7 52.7 51.7 C 56.6 49.2 61.5 49.3 65.8 48.0 Z" />
<path fill="#314b49" stroke="#314b49" stroke-width="0.09375" d=" M 93.8 63.3 C 96.2 61.6 99.0 60.6 102.0 60.8 C 104.1 61.7 106.0 63.1 108.0 64.3 C 108.5 64.1 109.6 63.8 110.1 63.6 C 108.2 66.1 105.2 67.9 102.0 67.2 C 99.1 66.0 97.1 63.3 93.8 63.3 Z" />
<path fill="#a04d32" stroke="#a04d32" stroke-width="0.09375" d=" M 96.3 66.3 C 97.1 67.1 98.0 67.9 98.8 68.7 C 101.6 68.8 104.5 68.8 107.3 68.8 C 108.2 68.0 109.1 67.2 110.1 66.4 C 108.8 67.7 107.5 69.2 105.7 70.0 C 103.9 70.3 102.0 70.2 100.2 70.2 C 98.8 68.9 97.5 67.6 96.3 66.3 Z" />
<path fill="#796958" stroke="#796958" stroke-width="0.09375" d=" M 74.4 72.4 C 74.4 72.5 74.5 72.6 74.6 72.6 C 74.5 72.6 74.4 72.5 74.4 72.4 Z" />
<path fill="#314b49" stroke="#314b49" stroke-width="0.09375" d=" M 140.0 80.9 C 140.9 77.4 144.9 76.9 147.9 76.3 C 148.7 77.8 150.2 79.9 148.4 81.3 C 145.6 81.9 142.5 82.4 140.0 80.9 Z" />
<path fill="#796958" stroke="#796958" stroke-width="0.09375" d=" M 26.4 128.4 L 26.5 128.5 L 26.6 128.6 C 26.6 128.5 26.5 128.4 26.4 128.4 Z" />
</svg>
